<?xml version="1.0" encoding="utf-8"?>
<!-- Generator: Adobe Illustrator 19.2.1, SVG Export Plug-In . SVG Version: 6.00 Build 0)  -->
<svg version="1.1" id="Layer_1" xmlns="http://www.w3.org/2000/svg" xmlns:xlink="http://www.w3.org/1999/xlink" x="0px" y="0px"
	 viewBox="0 0 1921 1079" style="enable-background:new 0 0 1921 1079;" xml:space="preserve">
<style type="text/css">
	.st0{fill:#63BB46;}
	.st1{fill:#64BB47;}
	.st2{fill:#65BC47;}
	.st3{fill:#66BC48;}
	.st4{fill:#67BC48;}
	.st5{fill:#68BD49;}
	.st6{fill:#69BD49;}
	.st7{fill:#6ABD4A;}
	.st8{fill:#6BBE4B;}
	.st9{fill:#6CBE4B;}
	.st10{fill:#6DBE4C;}
	.st11{fill:#6EBF4C;}
	.st12{fill:#6FBF4D;}
	.st13{fill:#70BF4D;}
	.st14{fill:#71C04E;}
	.st15{fill:#72C04F;}
	.st16{fill:#73C04F;}
	.st17{fill:#74C150;}
	.st18{fill:#75C150;}
	.st19{fill:#76C151;}
	.st20{fill:#77C251;}
	.st21{fill:#78C252;}
	.st22{fill:#79C252;}
	.st23{fill:#7AC353;}
	.st24{fill:#7BC354;}
	.st25{fill:#7CC354;}
	.st26{fill:#7DC455;}
	.st27{fill:#7EC455;}
	.st28{fill:#7FC456;}
	.st29{fill:#80C556;}
	.st30{fill:#81C557;}
	.st31{fill:#82C558;}
	.st32{fill:#83C658;}
	.st33{fill:#84C659;}
	.st34{fill:#85C659;}
	.st35{fill:#86C75A;}
	.st36{fill:#87C75A;}
	.st37{fill:#88C75B;}
	.st38{fill:#89C85C;}
	.st39{fill:#8AC85C;}
	.st40{fill:#8BC85D;}
	.st41{fill:#8CC95D;}
	.st42{fill:#8DC95E;}
	.st43{fill:#8EC95E;}
	.st44{fill:#8FCA5F;}
	.st45{fill:#90CA60;}
	.st46{fill:#91CA60;}
	.st47{fill:#92CB61;}
	.st48{fill:#93CB61;}
	.st49{fill:#94CB62;}
	.st50{fill:#95CC62;}
	.st51{fill:#96CC63;}
	.st52{fill:#97CD64;}
	.st53{fill:#98CD65;}
	.st54{fill:#99CE65;}
	.st55{fill:#9ACE66;}
	.st56{fill:#9BCE66;}
	.st57{fill:#9CCF67;}
	.st58{fill:#9DCF67;}
	.st59{fill:#9ECF68;}
	.st60{fill:#9FD069;}
	.st61{fill:#A0D069;}
	.st62{fill:#A1D06A;}
	.st63{fill:#A2D16A;}
	.st64{fill:#A3D16B;}
	.st65{fill:#A4D16B;}
	.st66{fill:#A5D26C;}
	.st67{fill:#A6D26D;}
	.st68{fill:#A7D26D;}
	.st69{fill:#A8D36E;}
	.st70{fill:#A9D36E;}
	.st71{fill:#AAD36F;}
	.st72{fill:#ABD46F;}
	.st73{fill:#ACD470;}
	.st74{fill:#ADD471;}
	.st75{fill:#AED571;}
	.st76{fill:#AFD572;}
	.st77{fill:#B0D572;}
	.st78{fill:#B1D673;}
	.st79{fill:#B2D673;}
	.st80{fill:#B3D674;}
	.st81{fill:#B4D775;}
	.st82{fill:#B5D775;}
	.st83{fill:#B6D776;}
	.st84{fill:#B7D876;}
	.st85{fill:#B8D877;}
	.st86{fill:#B9D877;}
	.st87{fill:#BAD978;}
	.st88{fill:#BBD978;}
	.st89{fill:#BCD979;}
	.st90{fill:#BDDA7A;}
	.st91{fill:#BEDA7A;}
	.st92{fill:#BFDA7B;}
	.st93{fill:#C0DB7B;}
	.st94{fill:#C1DB7C;}
	.st95{fill:#C2DB7C;}
	.st96{fill:#C3DC7D;}
	.st97{fill:#C4DC7E;}
	.st98{fill:#C5DC7E;}
	.st99{fill:#C6DD7F;}
	.st100{fill:#C7DD7F;}
	.st101{fill:#C8DD80;}
	.st102{fill:#C9DE80;}
	.st103{fill:#CADE81;}
	.st104{fill:#231F20;}
	.st105{fill:#808184;}
	.st106{clip-path:url(#SVGID_2_);}
	.st107{fill:#FFFFFF;}
	.st108{fill:none;}
	.st109{font-family:'MuseoSans-700';}
	.st110{font-size:84px;}
</style>
<g>
	<g>
		
			<ellipse transform="matrix(0.2152 -0.9766 0.9766 0.2152 532.9331 1711.921)" class="st0" cx="1331.5" cy="524.4" rx="146.2" ry="146.2"/>
		
			<ellipse transform="matrix(0.2152 -0.9766 0.9766 0.2152 532.3506 1711.4536)" class="st1" cx="1331" cy="524.5" rx="145" ry="145"/>
		
			<ellipse transform="matrix(0.2152 -0.9766 0.9766 0.2152 531.7681 1710.9862)" class="st2" cx="1330.4" cy="524.7" rx="143.8" ry="143.8"/>
		
			<ellipse transform="matrix(0.2152 -0.9766 0.9766 0.2152 531.1855 1710.5188)" class="st3" cx="1329.8" cy="524.8" rx="142.6" ry="142.6"/>
		
			<ellipse transform="matrix(0.2152 -0.9766 0.9766 0.2152 530.603 1710.0514)" class="st4" cx="1329.2" cy="524.9" rx="141.3" ry="141.3"/>
		
			<ellipse transform="matrix(0.2152 -0.9766 0.9766 0.2152 530.0204 1709.584)" class="st5" cx="1328.6" cy="525" rx="140.1" ry="140.1"/>
		
			<ellipse transform="matrix(0.2152 -0.9766 0.9766 0.2152 529.4379 1709.1166)" class="st6" cx="1328" cy="525.2" rx="138.9" ry="138.9"/>
		
			<ellipse transform="matrix(0.2152 -0.9766 0.9766 0.2152 528.8553 1708.6492)" class="st7" cx="1327.5" cy="525.3" rx="137.7" ry="137.7"/>
		
			<ellipse transform="matrix(0.2152 -0.9766 0.9766 0.2152 528.2728 1708.1818)" class="st8" cx="1326.9" cy="525.4" rx="136.5" ry="136.5"/>
		
			<ellipse transform="matrix(0.2152 -0.9766 0.9766 0.2152 527.6903 1707.7144)" class="st9" cx="1326.3" cy="525.6" rx="135.2" ry="135.2"/>
		
			<ellipse transform="matrix(0.2152 -0.9766 0.9766 0.2152 527.1077 1707.2469)" class="st10" cx="1325.7" cy="525.7" rx="134" ry="134"/>
		
			<ellipse transform="matrix(0.2152 -0.9766 0.9766 0.2152 526.5252 1706.7795)" class="st11" cx="1325.1" cy="525.8" rx="132.8" ry="132.8"/>
		
			<ellipse transform="matrix(0.2152 -0.9766 0.9766 0.2152 525.9426 1706.3121)" class="st12" cx="1324.6" cy="525.9" rx="131.6" ry="131.6"/>
		
			<ellipse transform="matrix(0.2152 -0.9766 0.9766 0.2152 525.3601 1705.8447)" class="st13" cx="1324" cy="526.1" rx="130.3" ry="130.3"/>
		
			<ellipse transform="matrix(0.2152 -0.9766 0.9766 0.2152 524.7776 1705.3773)" class="st14" cx="1323.4" cy="526.2" rx="129.1" ry="129.1"/>
		
			<ellipse transform="matrix(0.2152 -0.9766 0.9766 0.2152 524.195 1704.9099)" class="st15" cx="1322.8" cy="526.3" rx="127.9" ry="127.9"/>
		
			<ellipse transform="matrix(0.2152 -0.9766 0.9766 0.2152 523.6125 1704.4425)" class="st16" cx="1322.2" cy="526.5" rx="126.7" ry="126.7"/>
		
			<ellipse transform="matrix(0.2152 -0.9766 0.9766 0.2152 523.0299 1703.9751)" class="st17" cx="1321.6" cy="526.6" rx="125.4" ry="125.4"/>
		
			<ellipse transform="matrix(0.2152 -0.9766 0.9766 0.2152 522.4474 1703.5077)" class="st18" cx="1321.1" cy="526.7" rx="124.2" ry="124.2"/>
		
			<ellipse transform="matrix(0.2152 -0.9766 0.9766 0.2152 521.8648 1703.0403)" class="st19" cx="1320.5" cy="526.8" rx="123" ry="123"/>
		
			<ellipse transform="matrix(0.2152 -0.9766 0.9766 0.2152 521.2823 1702.5729)" class="st20" cx="1319.9" cy="527" rx="121.8" ry="121.8"/>
		
			<ellipse transform="matrix(0.2152 -0.9766 0.9766 0.2152 520.6997 1702.1055)" class="st21" cx="1319.3" cy="527.1" rx="120.5" ry="120.5"/>
		
			<ellipse transform="matrix(0.2152 -0.9766 0.9766 0.2152 520.1172 1701.6381)" class="st22" cx="1318.7" cy="527.2" rx="119.3" ry="119.3"/>
		
			<ellipse transform="matrix(0.2152 -0.9766 0.9766 0.2152 519.5346 1701.1707)" class="st23" cx="1318.2" cy="527.4" rx="118.1" ry="118.1"/>
		
			<ellipse transform="matrix(0.2152 -0.9766 0.9766 0.2152 518.9521 1700.7032)" class="st24" cx="1317.6" cy="527.5" rx="116.9" ry="116.9"/>
		
			<ellipse transform="matrix(0.2152 -0.9766 0.9766 0.2152 518.3695 1700.2358)" class="st25" cx="1317" cy="527.6" rx="115.6" ry="115.6"/>
		
			<ellipse transform="matrix(0.2152 -0.9766 0.9766 0.2152 517.7869 1699.7684)" class="st26" cx="1316.4" cy="527.7" rx="114.4" ry="114.4"/>
		
			<ellipse transform="matrix(0.2152 -0.9766 0.9766 0.2152 517.2044 1699.301)" class="st27" cx="1315.8" cy="527.9" rx="113.2" ry="113.2"/>
		
			<ellipse transform="matrix(0.2152 -0.9766 0.9766 0.2152 516.6218 1698.8336)" class="st28" cx="1315.2" cy="528" rx="112" ry="112"/>
		
			<ellipse transform="matrix(0.2152 -0.9766 0.9766 0.2152 516.0392 1698.3662)" class="st29" cx="1314.7" cy="528.1" rx="110.7" ry="110.7"/>
		
			<ellipse transform="matrix(0.2152 -0.9766 0.9766 0.2152 515.4567 1697.8988)" class="st30" cx="1314.1" cy="528.3" rx="109.5" ry="109.5"/>
		
			<ellipse transform="matrix(0.2152 -0.9766 0.9766 0.2152 514.8741 1697.4313)" class="st31" cx="1313.5" cy="528.4" rx="108.3" ry="108.3"/>
		
			<ellipse transform="matrix(0.2152 -0.9766 0.9766 0.2152 514.2916 1696.9639)" class="st32" cx="1312.9" cy="528.5" rx="107.1" ry="107.1"/>
		
			<ellipse transform="matrix(0.2152 -0.9766 0.9766 0.2152 513.709 1696.4965)" class="st33" cx="1312.3" cy="528.6" rx="105.9" ry="105.9"/>
		
			<ellipse transform="matrix(0.2152 -0.9766 0.9766 0.2152 513.1264 1696.0291)" class="st34" cx="1311.7" cy="528.8" rx="104.6" ry="104.6"/>
		
			<ellipse transform="matrix(0.2152 -0.9766 0.9766 0.2152 512.5439 1695.5616)" class="st35" cx="1311.2" cy="528.9" rx="103.4" ry="103.4"/>
		
			<ellipse transform="matrix(0.2152 -0.9766 0.9766 0.2152 511.9613 1695.0942)" class="st36" cx="1310.6" cy="529" rx="102.2" ry="102.2"/>
		
			<ellipse transform="matrix(0.2152 -0.9766 0.9766 0.2152 511.3787 1694.6268)" class="st37" cx="1310" cy="529.2" rx="101" ry="101"/>
		
			<ellipse transform="matrix(0.2152 -0.9766 0.9766 0.2152 510.7961 1694.1593)" class="st38" cx="1309.4" cy="529.3" rx="99.7" ry="99.7"/>
		
			<ellipse transform="matrix(0.2152 -0.9766 0.9766 0.2152 510.2136 1693.6919)" class="st39" cx="1308.8" cy="529.4" rx="98.5" ry="98.5"/>
		
			<ellipse transform="matrix(0.2152 -0.9766 0.9766 0.2152 509.631 1693.2245)" class="st40" cx="1308.3" cy="529.5" rx="97.3" ry="97.3"/>
		
			<ellipse transform="matrix(0.2152 -0.9766 0.9766 0.2152 509.0484 1692.7571)" class="st41" cx="1307.7" cy="529.7" rx="96.1" ry="96.1"/>
		
			<ellipse transform="matrix(0.2152 -0.9766 0.9766 0.2152 508.4658 1692.2896)" class="st42" cx="1307.1" cy="529.8" rx="94.8" ry="94.8"/>
		
			<ellipse transform="matrix(0.2152 -0.9766 0.9766 0.2152 507.8832 1691.8221)" class="st43" cx="1306.5" cy="529.9" rx="93.6" ry="93.6"/>
		
			<ellipse transform="matrix(0.2152 -0.9766 0.9766 0.2152 507.3006 1691.3547)" class="st44" cx="1305.9" cy="530.1" rx="92.4" ry="92.4"/>
		
			<ellipse transform="matrix(0.2152 -0.9766 0.9766 0.2152 506.718 1690.8873)" class="st45" cx="1305.3" cy="530.2" rx="91.2" ry="91.2"/>
		
			<ellipse transform="matrix(0.2152 -0.9766 0.9766 0.2152 506.1354 1690.4198)" class="st46" cx="1304.8" cy="530.3" rx="89.9" ry="89.9"/>
		
			<ellipse transform="matrix(0.2152 -0.9766 0.9766 0.2152 505.5529 1689.9524)" class="st47" cx="1304.2" cy="530.4" rx="88.7" ry="88.7"/>
		
			<ellipse transform="matrix(0.2152 -0.9766 0.9766 0.2152 504.9702 1689.485)" class="st48" cx="1303.6" cy="530.6" rx="87.5" ry="87.5"/>
		
			<ellipse transform="matrix(0.2152 -0.9766 0.9766 0.2152 504.3876 1689.0175)" class="st49" cx="1303" cy="530.7" rx="86.3" ry="86.3"/>
		
			<ellipse transform="matrix(0.2152 -0.9766 0.9766 0.2152 503.805 1688.55)" class="st50" cx="1302.4" cy="530.8" rx="85" ry="85"/>
		
			<ellipse transform="matrix(0.2152 -0.9766 0.9766 0.2152 503.2224 1688.0826)" class="st51" cx="1301.9" cy="531" rx="83.8" ry="83.8"/>
		
			<ellipse transform="matrix(0.2152 -0.9766 0.9766 0.2152 502.6398 1687.6151)" class="st51" cx="1301.3" cy="531.1" rx="82.6" ry="82.6"/>
		
			<ellipse transform="matrix(0.2152 -0.9766 0.9766 0.2152 502.0572 1687.1477)" class="st52" cx="1300.7" cy="531.2" rx="81.4" ry="81.4"/>
		
			<ellipse transform="matrix(0.2152 -0.9766 0.9766 0.2152 501.4746 1686.6802)" class="st53" cx="1300.1" cy="531.3" rx="80.1" ry="80.1"/>
		
			<ellipse transform="matrix(0.2152 -0.9766 0.9766 0.2152 500.892 1686.2128)" class="st54" cx="1299.5" cy="531.5" rx="78.9" ry="78.9"/>
		
			<ellipse transform="matrix(0.2152 -0.9766 0.9766 0.2152 500.3093 1685.7452)" class="st55" cx="1298.9" cy="531.6" rx="77.7" ry="77.7"/>
		
			<ellipse transform="matrix(0.2152 -0.9766 0.9766 0.2152 499.7267 1685.2778)" class="st56" cx="1298.4" cy="531.7" rx="76.5" ry="76.5"/>
		
			<ellipse transform="matrix(0.2152 -0.9766 0.9766 0.2152 499.144 1684.8103)" class="st57" cx="1297.8" cy="531.9" rx="75.3" ry="75.3"/>
		
			<ellipse transform="matrix(0.2152 -0.9766 0.9766 0.2152 498.5614 1684.3429)" class="st58" cx="1297.2" cy="532" rx="74" ry="74"/>
		
			<ellipse transform="matrix(0.2152 -0.9766 0.9766 0.2152 497.9788 1683.8754)" class="st59" cx="1296.6" cy="532.1" rx="72.8" ry="72.8"/>
		
			<ellipse transform="matrix(0.2152 -0.9766 0.9766 0.2152 497.3961 1683.408)" class="st60" cx="1296" cy="532.2" rx="71.6" ry="71.6"/>
		
			<ellipse transform="matrix(0.2152 -0.9766 0.9766 0.2152 496.8135 1682.9404)" class="st61" cx="1295.5" cy="532.4" rx="70.4" ry="70.4"/>
		
			<ellipse transform="matrix(0.2152 -0.9766 0.9766 0.2152 496.2308 1682.4729)" class="st62" cx="1294.9" cy="532.5" rx="69.1" ry="69.1"/>
		
			<ellipse transform="matrix(0.2152 -0.9766 0.9766 0.2152 495.6481 1682.0055)" class="st63" cx="1294.3" cy="532.6" rx="67.9" ry="67.9"/>
		
			<ellipse transform="matrix(0.2152 -0.9766 0.9766 0.2152 495.0655 1681.538)" class="st64" cx="1293.7" cy="532.8" rx="66.7" ry="66.7"/>
		
			<ellipse transform="matrix(0.2152 -0.9766 0.9766 0.2152 494.4828 1681.0704)" class="st65" cx="1293.1" cy="532.9" rx="65.5" ry="65.5"/>
		
			<ellipse transform="matrix(0.2152 -0.9766 0.9766 0.2152 493.9001 1680.6029)" class="st66" cx="1292.5" cy="533" rx="64.2" ry="64.2"/>
		
			<ellipse transform="matrix(0.2152 -0.9766 0.9766 0.2152 493.3174 1680.1354)" class="st67" cx="1292" cy="533.1" rx="63" ry="63"/>
		
			<ellipse transform="matrix(0.2152 -0.9766 0.9766 0.2152 492.7347 1679.6678)" class="st68" cx="1291.4" cy="533.3" rx="61.8" ry="61.8"/>
		
			<ellipse transform="matrix(0.2152 -0.9766 0.9766 0.2152 492.152 1679.2003)" class="st69" cx="1290.8" cy="533.4" rx="60.6" ry="60.6"/>
		
			<ellipse transform="matrix(0.2152 -0.9766 0.9766 0.2152 491.5693 1678.7328)" class="st70" cx="1290.2" cy="533.5" rx="59.3" ry="59.3"/>
		
			<ellipse transform="matrix(0.2152 -0.9766 0.9766 0.2152 490.9865 1678.2653)" class="st71" cx="1289.6" cy="533.7" rx="58.1" ry="58.1"/>
		
			<ellipse transform="matrix(0.2152 -0.9766 0.9766 0.2152 490.4038 1677.7977)" class="st72" cx="1289" cy="533.8" rx="56.9" ry="56.9"/>
		
			<ellipse transform="matrix(0.2152 -0.9766 0.9766 0.2152 489.821 1677.3302)" class="st73" cx="1288.5" cy="533.9" rx="55.7" ry="55.7"/>
		
			<ellipse transform="matrix(0.2152 -0.9766 0.9766 0.2152 489.2383 1676.8627)" class="st74" cx="1287.9" cy="534" rx="54.4" ry="54.4"/>
		
			<ellipse transform="matrix(0.2152 -0.9766 0.9766 0.2152 488.6555 1676.395)" class="st75" cx="1287.3" cy="534.2" rx="53.2" ry="53.2"/>
		
			<ellipse transform="matrix(0.2152 -0.9766 0.9766 0.2152 488.0728 1675.9275)" class="st76" cx="1286.7" cy="534.3" rx="52" ry="52"/>
		
			<ellipse transform="matrix(0.2152 -0.9766 0.9766 0.2152 487.4899 1675.46)" class="st77" cx="1286.1" cy="534.4" rx="50.8" ry="50.8"/>
		
			<ellipse transform="matrix(0.2152 -0.9766 0.9766 0.2152 486.9071 1674.9923)" class="st78" cx="1285.6" cy="534.6" rx="49.5" ry="49.5"/>
		
			<ellipse transform="matrix(0.2152 -0.9766 0.9766 0.2152 486.3243 1674.5247)" class="st79" cx="1285" cy="534.7" rx="48.3" ry="48.3"/>
		
			<ellipse transform="matrix(0.2152 -0.9766 0.9766 0.2152 485.7415 1674.0571)" class="st80" cx="1284.4" cy="534.8" rx="47.1" ry="47.1"/>
		
			<ellipse transform="matrix(0.2152 -0.9766 0.9766 0.2152 485.1586 1673.5895)" class="st81" cx="1283.8" cy="535" rx="45.9" ry="45.9"/>
		
			<ellipse transform="matrix(0.2152 -0.9766 0.9766 0.2152 484.5757 1673.1218)" class="st82" cx="1283.2" cy="535.1" rx="44.7" ry="44.7"/>
		
			<ellipse transform="matrix(0.2152 -0.9766 0.9766 0.2152 483.9928 1672.6542)" class="st83" cx="1282.6" cy="535.2" rx="43.4" ry="43.4"/>
		
			<ellipse transform="matrix(0.2152 -0.9766 0.9766 0.2152 483.4099 1672.1864)" class="st84" cx="1282.1" cy="535.3" rx="42.2" ry="42.2"/>
		
			<ellipse transform="matrix(0.2152 -0.9766 0.9766 0.2152 482.8269 1671.7188)" class="st85" cx="1281.5" cy="535.5" rx="41" ry="41"/>
		
			<ellipse transform="matrix(0.2152 -0.9766 0.9766 0.2152 482.2439 1671.251)" class="st86" cx="1280.9" cy="535.6" rx="39.8" ry="39.8"/>
		
			<ellipse transform="matrix(0.2152 -0.9766 0.9766 0.2152 481.6609 1670.7832)" class="st87" cx="1280.3" cy="535.7" rx="38.5" ry="38.5"/>
		
			<ellipse transform="matrix(0.2152 -0.9766 0.9766 0.2152 481.0779 1670.3156)" class="st88" cx="1279.7" cy="535.9" rx="37.3" ry="37.3"/>
		
			<ellipse transform="matrix(0.2152 -0.9766 0.9766 0.2152 480.4948 1669.8477)" class="st89" cx="1279.2" cy="536" rx="36.1" ry="36.1"/>
		
			<ellipse transform="matrix(0.2152 -0.9766 0.9766 0.2152 479.9116 1669.3799)" class="st90" cx="1278.6" cy="536.1" rx="34.9" ry="34.9"/>
		
			<ellipse transform="matrix(0.2152 -0.9766 0.9766 0.2152 479.3285 1668.912)" class="st91" cx="1278" cy="536.2" rx="33.6" ry="33.6"/>
		
			<ellipse transform="matrix(0.2152 -0.9766 0.9766 0.2152 478.7452 1668.4441)" class="st92" cx="1277.4" cy="536.4" rx="32.4" ry="32.4"/>
		
			<ellipse transform="matrix(0.2152 -0.9766 0.9766 0.2152 478.162 1667.9762)" class="st93" cx="1276.8" cy="536.5" rx="31.2" ry="31.2"/>
		
			<ellipse transform="matrix(0.2152 -0.9766 0.9766 0.2152 477.5786 1667.5082)" class="st94" cx="1276.2" cy="536.6" rx="30" ry="30"/>
		
			<ellipse transform="matrix(0.2152 -0.9766 0.9766 0.2152 476.9952 1667.0402)" class="st95" cx="1275.7" cy="536.8" rx="28.7" ry="28.7"/>
		
			<ellipse transform="matrix(0.2152 -0.9766 0.9766 0.2152 476.4117 1666.572)" class="st96" cx="1275.1" cy="536.9" rx="27.5" ry="27.5"/>
		
			<ellipse transform="matrix(0.2152 -0.9766 0.9766 0.2152 475.8281 1666.1039)" class="st97" cx="1274.5" cy="537" rx="26.3" ry="26.3"/>
		
			<ellipse transform="matrix(0.2152 -0.9766 0.9766 0.2152 475.2444 1665.6356)" class="st98" cx="1273.9" cy="537.1" rx="25.1" ry="25.1"/>
		
			<ellipse transform="matrix(0.2152 -0.9766 0.9766 0.2152 474.6606 1665.1674)" class="st99" cx="1273.3" cy="537.3" rx="23.8" ry="23.8"/>
		
			<ellipse transform="matrix(0.2152 -0.9766 0.9766 0.2152 474.0766 1664.699)" class="st100" cx="1272.8" cy="537.4" rx="22.6" ry="22.6"/>
		
			<ellipse transform="matrix(0.2152 -0.9766 0.9766 0.2152 473.4924 1664.2303)" class="st101" cx="1272.2" cy="537.5" rx="21.4" ry="21.4"/>
		
			<ellipse transform="matrix(0.2152 -0.9766 0.9766 0.2152 472.9081 1663.7617)" class="st102" cx="1271.6" cy="537.7" rx="20.2" ry="20.2"/>
		
			<ellipse transform="matrix(0.2152 -0.9766 0.9766 0.2152 472.3235 1663.2928)" class="st103" cx="1271" cy="537.8" rx="18.9" ry="18.9"/>
	</g>
	<g>
		<path class="st104" d="M516.9,588.1c0,0,18.9,22.3,46.4,22.3c17.3,0,31.7-10.5,31.7-27.5c0-38.8-89.5-32.8-89.5-90.5
			c0-27.8,24.4-49.6,59.3-49.6c19.7,0,52.7,8.9,52.7,34.1V492h-24.1v-8.7c0-9.7-13.9-16.8-28.6-16.8c-19.9,0-32.5,11-32.5,24.9
			c0,37.5,89.2,29.1,89.2,90c0,28.3-22,52.7-58.8,52.7c-39.4,0-61.4-27.5-61.4-27.5L516.9,588.1z"/>
		<path class="st104" d="M647.8,525.9c0-3.9-2.1-5.8-5.8-5.8h-10.8v-21.8h23.9c11.8,0,16.3,5,16.3,13.4c0,3.9-0.3,7.1-0.3,7.1h0.5
			c0,0,11-23.6,44.1-23.6c35.7,0,58.5,28.3,58.5,69.5c0,42.2-25.7,69.5-60.3,69.5c-29.4,0-40.7-21.3-40.7-21.3h-0.5
			c0,0,0.5,4.7,0.5,11.5v104.2h-25.4V525.9z M709.9,612.5c21,0,38.3-17.3,38.3-47.5c0-28.9-15.5-47.5-37.5-47.5
			c-19.7,0-38.3,13.9-38.3,47.7C672.4,588.8,685.3,612.5,709.9,612.5z"/>
		<path class="st104" d="M869,548.4h5.8v-1.3c0-23.4-8.7-31.7-29.4-31.7c-6.3,0-21.8,1.6-21.8,10.2v7.6h-23.9v-13.1
			c0-21.8,33.1-24.9,45.9-24.9c43,0,54.6,22.6,54.6,51.9v56.4c0,3.9,2.1,5.8,5.8,5.8h10.8v21.8h-23.9c-11.8,0-16.5-5.8-16.5-15.2
			c0-4.5,0.5-7.9,0.5-7.9h-0.5c0,0-10.5,26.2-42.2,26.2c-22.8,0-45.1-13.9-45.1-40.4C788.9,551.1,846.7,548.4,869,548.4z
			 M839.6,613.8c21.5,0,35.4-22.6,35.4-42.2v-4.5h-6.6c-19.2,0-53.8,1-53.8,25.4C814.6,603.3,822.8,613.8,839.6,613.8z"/>
		<path class="st104" d="M938.2,525.9c0-3.9-2.1-5.8-5.8-5.8h-10.8v-21.8h24.1c11.5,0,17.1,4.7,17.1,15.5v8.4c0,5.2-0.5,9.2-0.5,9.2
			h0.5c6.3-19.4,21.5-34.6,42-34.6c3.4,0,6.8,0.5,6.8,0.5v25.2c0,0-3.4-0.8-7.6-0.8c-16.3,0-31.2,11.5-37.3,31.2
			c-2.4,7.6-3.1,15.7-3.1,23.9v54.3h-25.5V525.9z"/>
		<path class="st104" d="M1029.6,473.4c0-3.9-2.1-5.8-5.8-5.8H1013v-21.8h25.2c11.8,0,16.8,3.4,16.8,15.2v86.1h11.8
			c4.7,0,10.5-1.3,13.9-5.8l30.7-43h29.1l-35.9,49.3c-6,8.1-10,10-10,10v0.5c0,0,4.5,1.6,8.9,10l19.7,35.9c2.1,4.2,4.7,5.2,11.3,5.2
			h8.1v21.8h-18.4c-12.3,0-16.3-2.1-22-12.3l-24.1-44.6c-2.9-5-8.9-5.5-13.1-5.5h-10v62.4h-25.5V473.4z"/>
	</g>
	<g>
		<path class="st105" d="M740.5,674.9v4.1H728v33.1h-4.3V679h-12.4v-4.1H740.5z"/>
		<path class="st105" d="M779.4,674.9v37.2h-4.3v-17.2h-20.4v17.2h-4.4v-37.2h4.4v15.9h20.4v-15.9H779.4z"/>
		<path class="st105" d="M818.2,708v4.1h-25.1v-37.2h24.8v4.1h-20.5v11.5h16.4v3.9h-16.4V708H818.2z"/>
		<path class="st105" d="M851.9,712.1l-8.4-13.9c-0.6,0.1-1.3,0.1-1.9,0.1h-7v13.9h-4.4v-37.2h11.3c8.7,0,13.9,4.6,13.9,11.8
			c0,5.3-2.8,9.1-7.8,10.7l9,14.8H851.9z M842,694.3c6,0,9-3.2,9-7.7c0-4.7-3.3-7.7-9-7.7h-7.4v15.4H842z"/>
		<path class="st105" d="M891.3,702.4h-18.7l-4.1,9.7h-4.7l16.2-37.2h4l16.2,37.2h-4.7L891.3,702.4z M889.7,698.5l-5.9-13.8
			c-0.8-1.9-1.7-4.5-1.8-4.5H882c-0.1,0-1,2.6-1.8,4.5l-5.9,13.8H889.7z"/>
		<path class="st105" d="M920.6,674.9c8.6,0,13.8,4.5,13.8,11.9c0,7.4-5.2,11.9-13.8,11.9h-7.1v13.5h-4.4v-37.2H920.6z M920.5,694.5
			c6.1,0,9.5-3,9.5-7.8c0-5-3.6-7.8-9.5-7.8h-7v15.6H920.5z"/>
		<path class="st105" d="M969.6,708v4.1h-25.1v-37.2h24.8v4.1h-20.5v11.5h16.4v3.9h-16.4V708H969.6z"/>
		<path class="st105" d="M1010.4,674.9v21.8c0,10.5-5.6,16.2-15.3,16.2c-9.7,0-15.3-5.7-15.3-16.2v-21.8h4.4v21.9
			c0,8.1,3.7,12.1,10.9,12.1c7.2,0,11-4,11-12.1v-21.9H1010.4z"/>
		<path class="st105" d="M1048.5,674.9v4.1H1036v33.1h-4.3V679h-12.4v-4.1H1048.5z"/>
		<path class="st105" d="M1058.4,712.1v-37.2h4.4v37.2H1058.4z"/>
		<path class="st105" d="M1105.2,685c-2.6-4.1-7.3-6.6-12.5-6.6c-8.5,0-14.8,6.1-14.8,15.1c0,9,6.5,15,14.8,15
			c5.7,0,10.7-3,13.1-7.7l4.3,1.2c-3.1,6.6-9.7,10.8-17.4,10.8c-10.7,0-19.3-8.1-19.3-19.4c0-11.2,8.6-19.4,19.3-19.4
			c7.3,0,13.6,3.8,16.9,9.8L1105.2,685z"/>
		<path class="st105" d="M1140.2,685.2c-0.8-4.5-4.7-7.2-9.3-7.2c-4.9,0-8.3,2.3-8.3,6.1c0,4.1,5.2,5.4,10.1,6.9
			c5.2,1.5,12.3,3.9,12.3,11.1c0,6.3-5.4,10.8-13.6,10.8c-8,0-13-4.7-14.2-11l4.2-1.1c0.5,4.3,4.1,8.1,10.2,8.1
			c5.5,0,8.9-2.9,8.9-6.8c0-5.4-6.4-6.5-11.7-8.2c-4.3-1.3-10.5-3.2-10.5-9.7c0-5.8,5.5-10.1,12.9-10.1c6.8,0,12.1,4,13.3,9.9
			L1140.2,685.2z"/>
	</g>
	<g>
		<defs>
			<circle id="SVGID_1_" cx="1331.3" cy="524.2" r="146.5"/>
		</defs>
		<clipPath id="SVGID_2_">
			<use xlink:href="#SVGID_1_"  style="overflow:visible;"/>
		</clipPath>
		<g class="st106">
			<polygon class="st107" points="1296.1,814 1251.4,719.1 1283.9,792.5 1281.6,793.5 1215.6,644.4 1268.9,801.1 1266.4,802 
				1208.8,632.7 1219.3,696 1216.7,696.5 1209.1,650.2 1215.6,726.4 1213,726.6 1208.3,670.7 1212,773.1 1209.5,773.2 1204.3,633.2 
				1189.3,750.6 1186.7,750.3 1201.5,634.8 1200.5,634.6 1162.5,746.9 1160,746.1 1200.2,627.6 1098.2,791 1096.1,789.6 
				1173.3,665.9 1075.1,808.7 1072.9,807.3 1196.7,627.2 1022.4,794.9 1020.6,793 1102,714.8 1033.3,778.5 1031.6,776.6 1176.6,642 
				1099.1,704.5 1097.5,702.5 1177.3,638.1 1153.8,654.3 1152.4,652.2 1191.4,625.3 1009.5,710.9 1008.4,708.6 1103.4,663.9 
				1030,696.4 1028.9,694 1178,628 1021.3,681.3 1020.5,678.9 1189.8,621.3 1126.4,631.7 1126,629.2 1172.2,621.5 1096.1,628 
				1095.9,625.5 1151.7,620.7 1049.3,624.5 1049.2,621.9 1189.3,616.7 1071.8,601.7 1072.2,599.1 1187.6,613.9 1187.8,613 
				1075.5,574.9 1076.4,572.5 1194.9,612.6 1031.4,510.7 1032.8,508.5 1156.6,585.7 1013.7,487.5 1015.2,485.4 1195.3,609.2 
				1027.5,434.9 1029.4,433.1 1107.7,514.5 1044,445.8 1045.9,444 1180.4,589.1 1117.9,511.6 1119.9,510 1184.3,589.8 1168.1,566.3 
				1170.2,564.8 1197.2,603.8 1111.5,422 1113.9,420.9 1158.6,515.8 1126.1,442.4 1128.4,441.4 1194.4,590.4 1141.1,433.7 
				1143.6,432.9 1201.2,602.2 1190.7,538.8 1193.3,538.4 1200.9,584.7 1194.4,508.5 1197,508.3 1201.7,564.2 1198,461.7 
				1200.5,461.6 1205.7,601.7 1220.7,484.3 1223.3,484.6 1208.5,600 1209.5,600.2 1247.5,488 1250,488.8 1209.8,607.3 1311.7,443.9 
				1313.9,445.2 1236.7,569 1334.9,426.2 1337.1,427.6 1213.3,607.7 1387.6,440 1389.4,441.8 1308,520.1 1376.7,456.4 1378.4,458.3 
				1233.4,592.9 1310.9,530.3 1312.5,532.3 1232.7,596.7 1256.2,580.5 1257.6,582.7 1218.6,609.6 1400.5,524 1401.6,526.3 
				1306.6,571 1380,538.5 1381.1,540.8 1232,606.9 1388.7,553.6 1389.5,556 1220.2,613.6 1283.6,603.2 1284,605.7 1237.8,613.3 
				1313.9,606.8 1314.1,609.4 1258.3,614.2 1360.7,610.4 1360.8,613 1220.7,618.2 1338.2,633.2 1337.8,635.7 1222.4,621 
				1222.2,621.9 1334.5,659.9 1333.6,662.4 1215.1,622.2 1378.6,724.2 1377.2,726.4 1253.4,649.2 1396.3,747.4 1394.8,749.5 
				1214.7,625.7 1382.5,800 1380.6,801.8 1302.3,720.4 1366,789.1 1364.1,790.9 1229.6,645.8 1292.1,723.3 1290.1,724.9 
				1225.7,645.1 1241.9,668.6 1239.8,670.1 1212.8,631.1 1298.5,812.9 			"/>
			<polygon class="st107" points="1316,844.5 1267,742.8 1306.2,827.9 1303.8,829 1221.1,649.2 1256.4,742.3 1254,743.2 
				1217.6,647.4 1225.7,674.7 1223.2,675.4 1209.8,630 1234.5,829.5 1232,829.8 1219.1,725.6 1227.1,805.5 1224.5,805.8 
				1208.2,643.6 1210.1,809.1 1207.5,809.1 1205.5,630.3 1195.7,693.7 1193.1,693.4 1200.3,647 1182.7,721.4 1180.2,720.8 
				1193.1,666.2 1164.8,764.8 1162.3,764 1201,629.3 1150.2,736.2 1147.8,735.1 1197.8,630 1197,629.6 1125.9,724.4 1123.8,722.8 
				1198.9,622.7 1051.1,746.3 1049.4,744.3 1161.4,650.7 1023.5,755.9 1022,753.8 1195.7,621.3 977.8,726.4 976.7,724.1 1078.4,675 
				993.3,714.2 992.2,711.8 1172,629.1 1078.9,664.4 1078,662 1173.8,625.6 1146.5,633.7 1145.8,631.3 1191.2,617.8 991.7,642.6 
				991.4,640 1095.6,627.1 1015.7,635.1 1015.4,632.5 1177.6,616.2 1012.1,618.1 1012.1,615.5 1190.9,613.5 1127.5,603.7 
				1127.8,601.1 1174.2,608.3 1099.8,590.8 1100.4,588.2 1155,601.1 1056.4,572.8 1057.2,570.3 1191.9,609 1085,558.2 1086.1,555.8 
				1191.2,605.8 1191.6,605 1096.8,533.9 1098.4,531.8 1198.5,606.9 1074.9,459.1 1076.9,457.5 1170.5,569.4 1065.3,431.5 
				1067.4,430 1199.9,603.7 1094.8,385.8 1097.1,384.7 1146.2,486.4 1107,401.3 1109.4,400.2 1192.1,580 1156.8,486.9 1159.2,486 
				1195.6,581.9 1187.5,554.5 1189.9,553.8 1203.4,599.2 1178.6,399.8 1181.2,399.4 1194.1,503.6 1186.1,423.7 1188.6,423.4 
				1205,585.7 1203.1,420.1 1205.7,420.1 1207.7,598.9 1217.5,535.5 1220.1,535.9 1212.9,582.2 1230.4,507.8 1233,508.4 1220.1,563 
				1248.4,464.5 1250.9,465.2 1212.2,599.9 1263,493 1265.4,494.1 1215.4,599.2 1216.2,599.6 1287.3,504.8 1289.4,506.4 
				1214.3,606.5 1362.1,482.9 1363.7,484.9 1251.8,578.5 1389.6,473.3 1391.2,475.4 1217.5,607.9 1435.4,502.8 1436.5,505.1 
				1334.8,554.2 1419.9,515 1421,517.4 1241.2,600.1 1334.3,564.8 1335.2,567.2 1239.4,603.6 1266.7,595.5 1267.4,597.9 1222,611.4 
				1421.4,586.7 1421.8,589.2 1317.6,602.1 1397.5,594.1 1397.8,596.7 1235.5,613 1401,611.1 1401.1,613.7 1222.3,615.7 
				1285.7,625.5 1285.3,628.1 1239,620.9 1313.4,638.5 1312.8,641 1258.2,628.1 1356.7,656.4 1356,658.9 1221.3,620.2 1328.2,671 
				1327.1,673.4 1222,623.4 1221.6,624.2 1316.4,695.3 1314.8,697.4 1214.7,622.3 1338.3,770.1 1336.3,771.8 1242.7,659.8 
				1347.9,797.7 1345.8,799.2 1213.3,625.5 1318.4,843.4 			"/>
		</g>
	</g>
	<g>
		<path class="st104" d="M1162.2,613.4v1.7h-5.2V629h-1.8v-13.9h-5.2v-1.7H1162.2z"/>
		<path class="st104" d="M1180.7,613.4V629h-1.8v-7c0-2.4,0.1-5.5,0.1-5.5h0c0,0-0.8,1.4-1.4,2.4l-3.6,6.3h-1l-3.6-6.3
			c-0.6-0.9-1.3-2.4-1.4-2.4h0c0,0,0.1,3.1,0.1,5.5v7h-1.8v-15.6h1.7l3.9,6.6c1.3,2.3,1.6,2.9,1.6,2.9h0c0,0,0.3-0.6,1.6-2.9
			l3.9-6.6H1180.7z"/>
	</g>
</g>
<rect x="480.2" y="221.7" class="st108" width="840" height="156"/>
<text transform="matrix(1 0 0 1 687.4284 281.3043)" class="st109 st110">WELCOME</text>
</svg>
